<svg xmlns="http://www.w3.org/2000/svg" version="1.1" xmlns:xlink="http://www.w3.org/1999/xlink" xmlns:svgjs="http://svgjs.dev/svgjs" width="1000" height="1000" viewBox="0 0 1000 1000"><g transform="matrix(1,0,0,1,-0.14221556886212738,-0.14221556886229791)"><svg viewBox="0 0 334 334" data-background-color="#ffffff" preserveAspectRatio="xMidYMid meet" height="1000" width="1000" xmlns="http://www.w3.org/2000/svg" xmlns:xlink="http://www.w3.org/1999/xlink"><g id="tight-bounds" transform="matrix(1,0,0,1,0.04749999999998522,0.04750000000001364)"><svg viewBox="0 0 333.90454557049503 333.90454557049503" height="333.90454557049503" width="333.90454557049503"><g><svg></svg></g><g><svg viewBox="0 0 333.90454557049503 333.90454557049503" height="333.90454557049503" width="333.90454557049503"><g><path d="M0 166.952c0-92.205 74.747-166.952 166.952-166.952 92.205 0 166.952 74.747 166.953 166.952 0 92.205-74.747 166.952-166.953 166.953-92.205 0-166.952-74.747-166.952-166.953zM166.952 316.63c82.665 0 149.677-67.013 149.678-149.678 0-82.665-67.013-149.677-149.678-149.677-82.665 0-149.677 67.013-149.677 149.677 0 82.665 67.013 149.677 149.677 149.678z" data-fill-palette-color="tertiary" fill="#ee3e38" stroke="transparent"></path><ellipse rx="160.27418187383762" ry="160.27418187383762" cx="166.95227278524752" cy="166.95227278524752" fill="#ee3e38" stroke="transparent" stroke-width="0" fill-opacity="1" data-fill-palette-color="tertiary"></ellipse></g><g transform="matrix(1,0,0,1,88.86314568868875,71.17305217166896)"><svg viewBox="0 0 156.17825419311754 191.55844122715712" height="191.55844122715712" width="156.17825419311754"><g><svg viewBox="0 0 156.17825419311757 191.55844122715715" height="191.55844122715712" width="156.17825419311754"><g><svg viewBox="0 0 156.17825419311757 191.55844122715715" height="191.55844122715715" width="156.17825419311757"><g id="textblocktransform"><svg viewBox="0 0 156.17825419311757 191.55844122715715" height="191.55844122715715" width="156.17825419311757" id="textblock"><g><svg viewBox="0 0 156.17825419311757 191.55844122715715" height="191.55844122715715" width="156.17825419311757"><g transform="matrix(1,0,0,1,0,0)"><svg width="156.17825419311757" viewBox="3.76 -36.28 30.18 37.010000000000005" height="191.55844122715715" data-palette-color="#ffffff"><path d="M33.94-0.15L33.94-0.15 24.22 0.1Q24.12-3.08 24.07-6.2 24.02-9.33 23.93-12.5L23.93-12.5 14.75-12.06Q14.7-11.57 14.7-11.11 14.7-10.64 14.7-10.21L14.7-10.21Q14.7-7.47 14.92-4.76 15.14-2.05 15.38 0.63L15.38 0.63Q14.4 0.68 13.4 0.71 12.4 0.73 11.43 0.73L11.43 0.73Q9.52 0.73 7.59 0.66 5.66 0.59 3.76 0.59L3.76 0.59Q3.86-3.96 4-8.4 4.15-12.84 4.25-17.38L4.25-17.38Q4.35-21.83 4.37-26.17 4.39-30.52 4.44-34.91L4.44-34.91 12.6-34.91Q12.99-31.25 13.13-27.61 13.28-23.97 13.57-20.31L13.57-20.31Q15.92-20.36 18.21-20.36 20.51-20.36 22.9-20.41L22.9-20.41 23.39-36.23Q24.07-36.28 24.73-36.28 25.39-36.28 26.07-36.28L26.07-36.28Q28.03-36.28 29.91-36.18 31.79-36.08 33.69-35.74L33.69-35.74Q33.94-26.81 33.89-17.94 33.84-9.08 33.94-0.15Z" opacity="1" transform="matrix(1,0,0,1,0,0)" fill="#ffffff" class="wordmark-text-0" data-fill-palette-color="quaternary" id="text-0"></path></svg></g></svg></g></svg></g></svg></g></svg></g></svg></g></svg></g><defs></defs></svg><rect width="333.90454557049503" height="333.90454557049503" fill="none" stroke="none" visibility="hidden"></rect></g></svg></g></svg>